<?xml version="1.0" encoding="UTF-8" standalone="no"?>
<svg
   enable-background="new 0 0 293.19 484.98"
   viewBox="0 0 27.238567 23.717239"
   version="1.1"
   id="svg1445"
   sodipodi:docname="00001.svg"
   inkscape:version="1.1.2 (0a00cf5339, 2022-02-04)"

   xmlns:inkscape="http://www.inkscape.org/namespaces/inkscape"
   xmlns:sodipodi="http://sodipodi.sourceforge.net/DTD/sodipodi-0.dtd"
   xmlns="http://www.w3.org/2000/svg"
   xmlns:svg="http://www.w3.org/2000/svg">
  <defs
     id="defs1449" />
  <sodipodi:namedview
     id="namedview1447"
     pagecolor="#ffffff"
     bordercolor="#666666"
     borderopacity="1.0"
     inkscape:pageshadow="2"
     inkscape:pageopacity="0.0"
     inkscape:pagecheckerboard="0"
     showgrid="false"
     inkscape:zoom="1.5815085"
     inkscape:cx="-92.633077"
     inkscape:cy="98.956154"
     inkscape:window-width="1920"
     inkscape:window-height="976"
     inkscape:window-x="0"
     inkscape:window-y="27"
     inkscape:window-maximized="1"
     inkscape:current-layer="svg1445"
     fit-margin-top="0"
     fit-margin-left="0"
     fit-margin-right="0"
     fit-margin-bottom="0" />
  <path
     id="path1443"
     d="m 1.38088,3.4e-4 c -0.03,0 -0.0601,0.009 -0.0801,0.0488 -0.07,0.17 -0.22094,0.27141 -0.21094,0.44141 0.15,0.95 0.21125,1.61906 0.28125,2.28906 -0.03,0.11 -0.0702,0.20078 -0.24023,0.30078 C 0.64086,3.39039 0.04,3.92953 0,4.69953 c 0.03,0.49 0.35992,0.55985 0.91992,0.58985 1.86,-0.09 3.69977,-0.45891 5.50977,-0.62891 l 0.01,-0.0215 c 0.08,-0.11 0.14,-0.22016 0.25,-0.41016 0.03,-0.05 0.0414,-0.13867 -0.0586,-0.13867 -1.65,0.12 -3.47039,0.46031 -5.15039,0.57031 -0.39,0 -0.87008,0.0691 -1.08008,-0.21094 0,-0.06 0.0203,-0.12039 0.0703,-0.15039 0.31,-0.27 0.74047,-0.52937 0.98047,-0.85937 0.06,-0.09 0.0987,-0.16024 0.13867,-0.24024 0.14,0.3 0.37063,0.47047 0.64063,0.48047 0.33,0.01 0.64008,-0.20101 0.83008,-0.54101 0.75,0.67 1.81968,0.42023 2.67968,-0.01 1.03,-0.5 0.87969,-2.01945 -0.32031,-1.93945 -0.57,0.06 -1.31875,1.00008 -1.71875,1.58008 -0.17,-0.05 -0.31164,-0.17063 -0.43164,-0.39063 -0.05,-0.06 -0.0889,-0.0801 -0.12891,-0.0801 -0.06,0.01 -0.10085,0.0711 -0.13085,0.1211 -0.28,0.61 -1.06852,0.83984 -1.22852,0.0898 -0.14,-0.56 -0.2818,-1.90117 -0.3418,-2.45117 0,-0.03 -0.0286,-0.0486 -0.0586,-0.0586 z m 4.2832,1.83008 c 0.15375,0.0462 0.29102,0.16414 0.41602,0.36914 -0.39,0.5 -1.40055,0.67039 -2.06055,0.65039 0.32,-0.41 0.71086,-0.76093 1.13086,-0.96093 0.19,-0.08 0.35992,-0.10485 0.51367,-0.0586 z m 17.58789,4.00196 c -0.45625,-0.05 -1.02086,0.44679 -1.38086,1.46679 -0.22,0.83 0.49899,0.82008 1.20899,1.08008 -0.57,0.88 -2.23899,1.97961 -2.45899,2.09961 -0.25,0.14 -0.38133,0.37039 -0.11132,0.40039 1.48,-0.46 2.76117,-1.51937 3.20117,-2.35937 0.1,0.02 0.18882,0.0501 0.29883,0.0801 l 0.0508,0.01 c 0.21,0.1 0.19953,-0.1193 0.26953,-0.2793 l 0.01,-0.0215 c 0.05,-0.16 0.0796,-0.23961 0.0996,-0.34961 l -0.5,-0.16992 0.041,-0.14063 c 0.075,-1.17 -0.27227,-1.7664 -0.72852,-1.8164 z M 6.22072,5.89878 c -0.97,0.26 -3.0907,1.25031 -3.9707,1.57032 -0.19,0.1 -0.19883,0.4707 -0.29883,0.7207 -0.01,0.05 -4.7e-4,0.0798 0.0195,0.0898 0.04,0.03 0.10063,0.02 0.14063,0 0.87,-0.42 2.74859,-1.14984 3.80859,-1.58984 0.06,-0.02 0.12039,-0.0491 0.15039,-0.11914 -0.01,-0.03 0.23039,-0.51188 0.15039,-0.67188 z m 5.81055,0.4043 c -0.45625,-0.05 -1.02086,0.4468 -1.38086,1.4668 -0.21,0.83 0.50094,0.82007 1.21094,1.08007 -0.57,0.88 -2.24094,1.97938 -2.46094,2.10938 -0.25,0.14 -0.37938,0.38039 -0.10938,0.40039 1.48001,-0.46 2.75922,-1.51938 3.19922,-2.35938 0.06,0.02 0.11993,0.0291 0.16993,0.0391 0.04,0.02 0.0909,0.031 0.13085,0.041 0.29,0.12 0.26969,-0.14039 0.42969,-0.65039 l -0.5,-0.16992 0.0391,-0.14062 c 0.075,-1.17 -0.27227,-1.76641 -0.72852,-1.81641 z m 10.88867,0.27734 c 0.1,-0.03 0.25055,-0.0607 0.31055,0.0293 0.11,0.11 0.26906,0.36078 0.28906,0.80078 0,0.13 -0.0193,0.2986 -0.0293,0.3086 -0.36,-0.13001 -0.39023,-0.17868 -0.99023,-0.38868 -0.15,-0.03 0,-0.28125 0,-0.28125 0.06,-0.11 0.15953,-0.25914 0.26953,-0.36914 z M 8.46096,6.80894 c -0.98,0.26 -3.09071,1.25008 -3.97071,1.58008 -0.19,0.1 -0.20078,0.4807 -0.30078,0.7207 -0.01,0.05 0.0115,0.0798 0.0215,0.0898 0.04,0.03 0.0987,0.02 0.13867,0 0.88,-0.42 2.78055,-1.15984 3.81055,-1.58984 0.06,-0.03 0.12039,-0.0609 0.15039,-0.13086 0.03,-0.13 0.23039,-0.53992 0.15039,-0.66992 z m 3.24023,0.25 c 0.1,-0.03 0.24859,-0.0588 0.3086,0.0312 0.10999,0.11 0.27101,0.35883 0.29101,0.79883 0,0.13 -0.0212,0.30054 -0.0312,0.31054 -0.01,0.01 -0.2393,-0.0894 -0.2793,-0.10937 -0.08,-0.04 -0.30898,-0.13125 -0.70898,-0.28125 -0.15,-0.03 0,-0.2793 0,-0.2793 0.06,-0.12 0.15953,-0.25914 0.26953,-0.36914 z M 0.49025,7.34995 c -0.19,0.03 -0.26031,1.03969 -0.32031,1.17969 -0.06,0.29 -0.04,0.35031 0,0.57031 0.67,3.22 1.45133,6.96993 1.86133,10.16993 0.75,-1.16 0.25,-2.9993 0,-4.5293 -0.45,-2.41 -1.04086,-4.8507 -1.38086,-7.2207 -0.02,-0.11 -0.0602,-0.18993 -0.16016,-0.16993 z m 5.21094,2.5293 c -0.45,0 -1.35984,0.77 -1.58984,1.25 -0.22,0.52 0.35,0.71117 0.75,0.95117 -0.13,0.06 -0.32117,0.13852 -0.45117,0.22852 l -0.01,0.0117 v 0.01 c -0.02,0.15 -0.18031,0.40907 -0.0703,0.53907 0.51,-0.17 1.74953,-0.61977 2.51953,-0.75977 0.03,-0.01 0.0613,-0.02 0.28125,-0.5 0.03,-0.05 0.0495,-0.12016 0.0195,-0.16016 -0.29,-0.06 -0.71922,0.1811 -1.19922,0.1211 -0.52,-0.01 -1.24172,-0.55086 -1.26172,-0.63086 0.02,-0.07 0.55117,-0.32055 0.70117,-0.31055 0.35,0.01 0.36032,0.36141 0.57032,0.44141 0.17,-0.01 0.36914,-0.52039 0.36914,-0.65039 -0.06,-0.25 -0.30891,-0.50102 -0.62891,-0.54102 z m 5.75,2.79102 c -0.12,-0.07 -0.20172,-0.0612 -0.26172,0.0488 -0.18,0.29 -0.40929,0.70117 -0.52929,0.95117 -0.04,0.08 -0.0799,0.20906 0.0801,0.28906 0.3,0.14 0.6993,0.42953 1.0293,0.51953 0.25,-0.06 0.52992,-0.81875 0.66992,-0.96875 0.03,-0.05 0.11071,-0.17953 -0.0293,-0.26953 -0.25,-0.15 -0.67899,-0.41031 -0.95899,-0.57031 z m 11.27539,0.0312 c -0.0937,0.0563 -0.14195,0.18867 -0.12695,0.38867 0.03,0.28 -0.16938,1.21008 0.14062,1.33008 -0.64,0.95 -1.09922,2.27883 -0.69922,3.29883 -1.72,0.51999 -4.31976,1.03984 -7.00976,0.58984 -0.83,-0.14 -2.32102,-0.69883 -2.29102,-1.29883 0.01,-0.22 -0.0594,-0.27125 -0.10937,-0.28125 -0.35,0.11 -0.34992,0.90016 -0.41992,1.16016 -0.06,0.57 0.33015,1.05015 1.16015,1.41015 -1.54,3.46 -5.02109,4.06992 -7.62109,3.16993 -0.48,-0.15 -0.67914,0.27093 -0.11914,0.46093 3.83,1.51 7.19922,1.09907 8.19922,-3.46093 3.37,1.06 7.92125,-0.23946 9.78125,-0.93946 0.77,-0.31 1.77914,0.3993 2.36914,0.5293 0.6,0.22 0.81023,-0.1193 0.99023,-0.5293 1.22,-2.52 -2.01984,-4.96976 -3.83984,-5.75976 -0.17,-0.105 -0.31055,-0.12461 -0.4043,-0.0684 z M 6.00783,13.80889 c -0.5332,0.055 -1.00773,0.69445 -1.14648,2.2207 -0.12,1.61 1.63969,2.54102 2.42968,0.79102 0.05,0.98 -0.75062,2.39812 -1.89062,3.32812 -1.37,1.05 -2.65922,1.19133 -4.69922,1.11133 -0.36,-0.04 -0.54156,0.34898 -0.10156,0.45899 3.84,0.94999 6.99,-0.36922 7.25,-4.69922 0.0937,-1.76875 -0.95313,-3.30254 -1.8418,-3.21094 z m 0.20508,1.40234 c 0.2525,0.0937 0.50156,0.38422 0.72656,0.69922 -0.35,0.51 -0.82914,0.71875 -1.36914,0.21875 -0.18,-0.18 -0.16961,-0.23945 -0.0996,-0.43945 0.235,-0.47 0.48969,-0.57227 0.74219,-0.47852 z m 17.38281,0.16797 c 0.37875,0.06 0.73438,0.52024 0.98438,1.24024 -0.15,0.15 -0.37063,0.34101 -0.64063,0.54101 -0.52,-0.12 -1.57,-0.08 -1.5,-0.5 0,-0.07 0.001,-0.0711 0.0312,-0.12109 0.345,-0.88 0.74625,-1.22016 1.125,-1.16016 z m 1.34375,0.0312 c 0.88,0.68 1.65149,1.50016 1.77149,2.16016 0,0.05 -0.001,0.0794 -0.0312,0.10937 -0.38,0.47 -1.24946,-0.32062 -1.93946,-0.39062 0.21,-0.66 0.28922,-1.29891 0.19922,-1.87891 z" />
</svg>
