<svg xmlns="http://www.w3.org/2000/svg" enable-background="new 0 0 64 64" viewBox="0 0 64 64" id="quran">
  <path fill="#0A193F" d="M59.742 51.655c-.038-.02-.077-.039-.117-.056l-12.732-5.602 12.283-5.404C61.499 39.689 63 37.494 63 35c0-1.947-.936-3.674-2.377-4.771 1.803-2.231 2.328-5.34 1.117-8.167l-.709-1.656c-.211-.492-.61-.879-1.108-1.074-.498-.196-1.055-.183-1.542.034l-.131.058-.947-2.841c-.537-1.611-1.737-2.924-3.293-3.602-1.556-.679-3.334-.666-4.881.037L32 20.802l-17.128-7.784c-1.546-.703-3.325-.716-4.881-.037-1.556.678-2.756 1.991-3.293 3.602l-.947 2.841L5.62 19.366c-.489-.217-1.044-.23-1.542-.034-.498.195-.897.583-1.108 1.074L2.26 22.061c-1.211 2.827-.686 5.937 1.117 8.168C1.936 31.326 1 33.053 1 35c0 2.494 1.501 4.689 3.745 5.561l12.362 5.438L4.375 51.6c-.04.017-.079.036-.117.056C2.249 52.699 1 54.747 1 57c0 3.309 2.691 6 6 6 .81 0 1.591-.158 2.324-.47.048-.021.096-.043.143-.068L32 52.55l22.527 9.909c.049.026.099.049.149.071C55.409 62.842 56.19 63 57 63c3.309 0 6-2.691 6-6C63 54.747 61.751 52.699 59.742 51.655zM57.645 36.899l-15.718 6.914-4.961-2.183 19.299-8.49c.016-.007.032-.014.047-.021C56.521 33.041 56.757 33 57 33c1.103 0 2 .897 2 2C59 35.819 58.487 36.569 57.645 36.899zM7.921 28.838c-1.9-.887-2.779-3.046-2.068-4.991l22.3 9.91c1.202.534 2.528.801 3.847.773.062.001.125.002.187.002 1.254 0 2.515-.267 3.66-.775l22.3-9.91c.711 1.945-.167 4.104-2.068 4.991L32 39.446 7.921 28.838zM10.493 17.847c.182-.544.571-.971 1.098-1.201.527-.229 1.104-.225 1.627.013l17.955 8.16c.263.12.545.179.828.179s.564-.06.828-.179l17.955-8.16c.523-.238 1.101-.242 1.627-.013.526.229.916.656 1.098 1.201l1.07 3.209-20.355 9.045c-.676.301-1.419.448-2.167.429-.036-.001-.073-.001-.109 0-.739.019-1.491-.128-2.168-.429L9.423 21.056 10.493 17.847zM7.745 58.85c-.024.011-.049.022-.073.034C7.461 58.961 7.236 59 7 59c-1.103 0-2-.897-2-2 0-.736.403-1.41 1.055-1.77l16.018-7.048 4.961 2.182L7.745 58.85zM57 59c-.235 0-.46-.039-.67-.116-.024-.012-.049-.023-.074-.034L6.275 36.866C5.513 36.569 5 35.819 5 35c0-1.103.897-2 2-2 .243 0 .479.041.688.119.016.007.031.015.047.021l50.211 22.09C58.597 55.59 59 56.264 59 57 59 58.103 58.103 59 57 59zM15 7c0 1.104.896 2 2 2s2-.896 2-2c1.104 0 2-.896 2-2s-.896-2-2-2c0-1.104-.896-2-2-2s-2 .896-2 2c-1.104 0-2 .896-2 2S13.896 7 15 7zM45 8c0 1.104.896 2 2 2s2-.896 2-2c1.104 0 2-.896 2-2s-.896-2-2-2c0-1.104-.896-2-2-2s-2 .896-2 2c-1.104 0-2 .896-2 2S43.896 8 45 8z"></path>
  <path fill="#0A193F" d="M27.02 15c1.104 0 2-.896 2-2s-.896-2-2-2h-.01c-1.104 0-1.995.896-1.995 2S25.916 15 27.02 15zM37.02 6c1.104 0 2-.896 2-2s-.896-2-2-2h-.01c-1.104 0-1.995.896-1.995 2S35.916 6 37.02 6z"></path>
</svg>
